<svg width="208" height="252" viewBox="0 0 208 252" fill="none" xmlns="http://www.w3.org/2000/svg">
<path d="M71.8731 5.03225C89.946 -0.892773 108.659 -1.42891 127.098 2.59963C135.85 4.51164 144.484 8.02935 152.404 12.1904C153.157 12.5834 153.906 12.9859 154.649 13.3974C155.392 13.809 156.131 14.2293 156.863 14.6592C157.596 15.0891 158.325 15.5285 159.047 15.9765C159.769 16.4245 160.484 16.8818 161.194 17.3476C161.905 17.8135 162.61 18.2881 163.308 18.7715C164.008 19.2548 164.701 19.7465 165.386 20.2471C166.073 20.7477 166.754 21.2569 167.428 21.7744C168.101 22.2918 168.769 22.8175 169.429 23.3515C170.09 23.8857 170.744 24.4282 171.391 24.9785C172.039 25.5288 172.679 26.087 173.312 26.6533C173.946 27.2196 174.572 27.7941 175.19 28.376C175.81 28.9578 176.421 29.5474 177.026 30.1445C177.63 30.7416 178.227 31.3461 178.816 31.958C179.406 32.5699 179.987 33.189 180.561 33.8154C181.135 34.4418 181.702 35.0753 182.261 35.7158C182.818 36.3563 183.369 37.0031 183.911 37.6572C184.453 38.3113 184.987 38.9722 185.512 39.6396C186.038 40.307 186.555 40.981 187.063 41.6611C187.573 42.3415 188.073 43.0289 188.564 43.7217C189.056 44.4143 189.54 45.1127 190.014 45.8174C190.488 46.5221 190.954 47.2329 191.411 47.9492C191.868 48.6654 192.315 49.3878 192.754 50.1152C193.192 50.8426 193.622 51.5755 194.043 52.3135C194.463 53.0514 194.874 53.7947 195.276 54.543C195.678 55.2914 196.072 56.0446 196.455 56.8027C196.838 57.5608 197.212 58.3234 197.576 59.0908C197.941 59.8583 198.295 60.6309 198.639 61.4072C198.985 62.1833 199.32 62.9636 199.645 63.748C199.971 64.5326 200.288 65.3218 200.594 66.1142C200.899 66.9064 201.195 67.7023 201.481 68.5019C201.767 69.3017 202.044 70.1054 202.31 70.9121C202.576 71.7188 202.833 72.5287 203.079 73.3418C211.044 99.0591 208.563 128.603 195.952 152.415C189.03 165.484 179.206 175.653 169.452 186.619L142.131 217.389L125.403 236.626C122.367 240.123 119.376 244.035 115.952 247.142C113.859 249.042 111.236 250.377 108.543 251.194C104.084 252.546 99.8733 251.954 95.8165 249.744C93.699 248.59 91.9798 247.071 90.3067 245.353C85.5888 240.507 81.2792 235.094 76.8438 229.979L54.6885 204.707L32.6046 179.658C27.0428 173.3 21.356 167.044 16.6221 160.028C10.9897 151.679 6.90981 142.335 4.04305 132.701C3.80888 131.885 3.58534 131.066 3.37118 130.245C3.157 129.423 2.95193 128.599 2.7579 127.773C2.56385 126.946 2.37992 126.117 2.20614 125.286C2.03238 124.455 1.8693 123.622 1.7159 122.787C1.56249 121.952 1.41917 121.115 1.28622 120.277C1.15327 119.438 1.03047 118.599 0.918053 117.757C0.805613 116.916 0.703253 116.073 0.611413 115.229C0.519573 114.385 0.438453 113.54 0.367273 112.694C0.296096 111.848 0.235135 111.001 0.184656 110.154C0.134179 109.306 0.0942886 108.458 0.0645386 107.61C0.0347876 106.761 0.0149496 105.913 0.00594457 105.064C-0.00306043 104.215 -0.00189442 103.366 0.00985058 102.517C0.0215976 101.668 0.0437646 100.82 0.0762566 99.9707C0.10875 99.1224 0.151945 98.2741 0.205164 97.4267C0.258374 96.5797 0.321697 95.7333 0.395593 94.8877C0.469503 94.042 0.553953 93.1972 0.648523 92.3535C0.743083 91.5098 0.847813 90.6674 0.962973 89.8262C1.07812 88.9852 1.20328 88.1456 1.33895 87.3076C1.47462 86.4696 1.62131 85.6333 1.77743 84.7988C1.93355 83.9643 2.09998 83.1312 2.27645 82.3008C2.4529 81.4705 2.63934 80.6421 2.83602 79.8164C3.03272 78.9906 3.23931 78.1674 3.45614 77.3467C3.67298 76.5258 3.89995 75.7078 4.1368 74.8926C4.37362 74.0774 4.62037 73.2652 4.87704 72.456C5.13371 71.6469 5.40047 70.8407 5.67684 70.0381C5.95325 69.2353 6.23929 68.4354 6.53524 67.6396C6.83116 66.844 7.13695 66.0519 7.45223 65.2637C7.76749 64.4755 8.09242 63.6913 8.42684 62.9111C8.76133 62.1308 9.10559 61.3539 9.45911 60.582C9.81241 59.8103 10.1749 59.043 10.5469 58.2803C10.9191 57.5173 11.3007 56.7586 11.6915 56.0049C12.0822 55.2511 12.4826 54.5018 12.8917 53.7578C25.2956 30.8855 47.1975 13.122 71.8731 5.03225ZM156.685 62.9961C156.326 62.9993 155.968 63.0089 155.609 63.0254C153.066 63.6065 150.768 64.436 148.688 66.0635C141.605 71.6052 132.513 82.1368 125.92 88.9199C113.935 101.25 101.616 113.287 89.794 125.767C84.5587 120.216 69.8158 104.019 64.2471 100.56C62.3921 99.4076 60.3302 98.8122 58.1485 98.7607C54.2167 98.6682 50.423 100.342 47.6358 103.075C45.1135 105.548 43.491 108.805 43.4464 112.374C43.3367 121.149 53.9612 128.692 59.501 134.6C65.3399 140.639 76.537 153.476 83.0137 157.787C84.9871 159.1 87.2778 160.114 89.6788 160.187C94.3719 160.328 97.518 157.749 100.672 154.685C114.422 141.326 127.47 127.195 140.913 113.526L156.8 97.3965C160.915 93.2179 165.526 88.9303 168.836 84.0703C170.096 82.2216 170.746 79.0446 170.775 76.8584C170.824 73.1973 169.186 69.8611 166.637 67.293C164.024 64.6593 160.421 62.9668 156.685 62.9961Z" fill="#09EE82"/>
</svg>
