<svg width="785" height="254" viewBox="0 0 785 254" fill="none" xmlns="http://www.w3.org/2000/svg">
<path d="M72.4278 5.03671C90.5007 -0.888318 109.214 -1.42445 127.653 2.60409C136.405 4.5161 145.039 8.0338 152.959 12.1949C153.712 12.5879 154.461 12.9904 155.204 13.4019C155.947 13.8135 156.686 14.2338 157.418 14.6637C158.151 15.0936 158.88 15.533 159.602 15.981C160.324 16.429 161.039 16.8863 161.749 17.3521C162.46 17.818 163.165 18.2926 163.863 18.776C164.563 19.2593 165.256 19.751 165.941 20.2516C166.628 20.7522 167.309 21.2614 167.983 21.7789C168.656 22.2963 169.324 22.822 169.984 23.356C170.645 23.8902 171.299 24.4327 171.946 24.983C172.594 25.5333 173.234 26.0915 173.867 26.6578C174.501 27.2241 175.127 27.7986 175.745 28.3805C176.365 28.9623 176.976 29.5519 177.581 30.149C178.185 30.7461 178.782 31.3506 179.371 31.9625C179.961 32.5744 180.542 33.1935 181.116 33.8199C181.69 34.4463 182.257 35.0798 182.816 35.7203C183.373 36.3608 183.924 37.0076 184.466 37.6617C185.008 38.3158 185.542 38.9767 186.067 39.6441C186.593 40.3115 187.11 40.9855 187.618 41.6656C188.128 42.346 188.628 43.0334 189.119 43.7262C189.611 44.4188 190.095 45.1172 190.569 45.8219C191.043 46.5266 191.509 47.2374 191.966 47.9537C192.423 48.6699 192.87 49.3923 193.309 50.1197C193.747 50.8471 194.177 51.58 194.598 52.318C195.018 53.0559 195.429 53.7992 195.831 54.5475C196.233 55.2959 196.627 56.0491 197.01 56.8072C197.393 57.5653 197.767 58.3279 198.131 59.0953C198.496 59.8628 198.85 60.6354 199.194 61.4117C199.54 62.1878 199.875 62.9681 200.2 63.7525C200.526 64.5371 200.843 65.3263 201.149 66.1187C201.454 66.9109 201.75 67.7068 202.036 68.5064C202.322 69.3062 202.599 70.1099 202.865 70.9166C203.131 71.7233 203.388 72.5332 203.634 73.3463C211.599 99.0636 209.118 128.607 196.507 152.419C189.585 165.488 179.761 175.657 170.007 186.623L142.686 217.393L125.958 236.63C122.922 240.127 119.931 244.039 116.507 247.146C114.414 249.046 111.791 250.381 109.098 251.198C104.639 252.55 100.428 251.958 96.3712 249.748C94.2537 248.594 92.5345 247.075 90.8614 245.357C86.1435 240.511 81.8339 235.098 77.3985 229.983L55.2432 204.711L33.1593 179.662C27.5975 173.304 21.9107 167.048 17.1768 160.032C11.5444 151.683 7.4645 142.339 4.59774 132.705C4.36357 131.889 4.14003 131.07 3.92587 130.249C3.71169 129.427 3.50662 128.603 3.31259 127.777C3.11854 126.95 2.93461 126.121 2.76083 125.29C2.58707 124.459 2.42399 123.626 2.27059 122.791C2.11718 121.956 1.97386 121.119 1.84091 120.281C1.70796 119.442 1.58516 118.603 1.47274 117.761C1.3603 116.92 1.25794 116.077 1.1661 115.233C1.07426 114.389 0.99314 113.544 0.92196 112.698C0.850783 111.852 0.789822 111.005 0.739343 110.158C0.688866 109.31 0.648976 108.462 0.619226 107.614C0.589475 106.765 0.569637 105.917 0.560632 105.068C0.551627 104.219 0.552793 103.37 0.564538 102.521C0.576285 101.672 0.598452 100.824 0.630944 99.9752C0.663437 99.1269 0.706632 98.2786 0.759851 97.4312C0.813061 96.5842 0.876384 95.7378 0.95028 94.8922C1.02419 94.0465 1.10864 93.2017 1.20321 92.358C1.29777 91.5143 1.4025 90.6719 1.51766 89.8307C1.63281 88.9897 1.75797 88.1501 1.89364 87.3121C2.02931 86.4741 2.176 85.6378 2.33212 84.8033C2.48824 83.9688 2.65467 83.1357 2.83114 82.3053C3.00759 81.475 3.19403 80.6466 3.39071 79.8209C3.58741 78.9951 3.794 78.1719 4.01083 77.3512C4.22767 76.5303 4.45464 75.7123 4.69149 74.8971C4.92831 74.0819 5.17506 73.2697 5.43173 72.4605C5.6884 71.6514 5.95516 70.8452 6.23153 70.0426C6.50794 69.2398 6.79398 68.4399 7.08993 67.6441C7.38585 66.8485 7.69164 66.0564 8.00692 65.2682C8.32218 64.48 8.64711 63.6958 8.98153 62.9156C9.31602 62.1353 9.66028 61.3584 10.0138 60.5865C10.3671 59.8148 10.7296 59.0475 11.1016 58.2848C11.4738 57.5218 11.8554 56.7631 12.2462 56.0094C12.6369 55.2556 13.0373 54.5063 13.4464 53.7623C25.8503 30.89 47.7522 13.1265 72.4278 5.03671ZM157.24 63.0006C156.881 63.0038 156.523 63.0134 156.164 63.0299C153.621 63.611 151.323 64.4405 149.243 66.068C142.16 71.6097 133.068 82.1413 126.475 88.9244C114.49 101.254 102.171 113.291 90.3487 125.771C85.1134 120.22 70.3705 104.023 64.8018 100.564C62.9468 99.4121 60.8849 98.8167 58.7032 98.7652C54.7714 98.6727 50.9777 100.346 48.1905 103.079C45.6682 105.552 44.0457 108.809 44.0011 112.378C43.8914 121.153 54.5159 128.696 60.0557 134.604C65.8946 140.643 77.0917 153.48 83.5684 157.791C85.5418 159.104 87.8325 160.118 90.2335 160.191C94.9266 160.332 98.0727 157.753 101.227 154.689C114.977 141.33 128.025 127.199 141.468 113.53L157.355 97.401C161.47 93.2224 166.081 88.9348 169.391 84.0748C170.651 82.2261 171.301 79.0491 171.33 76.8629C171.379 73.2018 169.741 69.8656 167.192 67.2975C164.579 64.6638 160.976 62.9713 157.24 63.0006Z" fill="#09EE82"/>
<path fill-rule="evenodd" clip-rule="evenodd" d="M661.079 96.4532C678.066 83.838 699.275 79.0189 720.121 82.1534C721.364 82.343 722.602 82.5629 723.834 82.8135C725.067 83.0642 726.292 83.3452 727.51 83.6563C728.728 83.9674 729.939 84.309 731.141 84.6798C732.342 85.0505 733.534 85.4505 734.715 85.8799C735.897 86.3095 737.068 86.7677 738.228 87.2549C739.387 87.7422 740.533 88.258 741.666 88.8018C742.8 89.3457 743.92 89.9176 745.025 90.5167C746.131 91.1155 747.221 91.7409 748.296 92.3936C749.37 93.0464 750.428 93.7258 751.469 94.4307C752.51 95.1357 753.534 95.8657 754.539 96.6212C755.544 97.3766 756.529 98.1569 757.496 98.961C758.463 99.7651 759.409 100.593 760.335 101.443C761.261 102.294 762.165 103.166 763.048 104.062C763.93 104.957 764.791 105.874 765.628 106.812C766.465 107.75 767.279 108.708 768.069 109.686C768.859 110.663 769.625 111.66 770.366 112.676C771.292 113.957 772.178 115.266 773.021 116.602C773.865 117.938 774.666 119.3 775.425 120.686C776.183 122.072 776.899 123.482 777.57 124.912C778.241 126.343 778.866 127.794 779.446 129.264C780.027 130.734 780.561 132.22 781.048 133.724C781.535 135.227 781.975 136.745 782.368 138.276C782.76 139.807 783.105 141.349 783.401 142.901C783.697 144.453 783.945 146.013 784.144 147.581C784.953 154.103 784.946 160.5 784.051 167.015C783.879 168.269 783.677 169.519 783.443 170.763C783.21 172.007 782.946 173.246 782.652 174.478C782.358 175.709 782.035 176.933 781.682 178.148C781.328 179.364 780.944 180.571 780.532 181.769C780.12 182.965 779.678 184.152 779.207 185.328C778.736 186.503 778.237 187.667 777.71 188.818C777.183 189.97 776.627 191.107 776.044 192.231C775.461 193.354 774.851 194.464 774.214 195.559C773.577 196.653 772.914 197.731 772.225 198.793C771.535 199.855 770.819 200.9 770.078 201.927C769.337 202.953 768.571 203.962 767.781 204.952C766.991 205.942 766.177 206.911 765.34 207.861C764.502 208.811 763.641 209.74 762.759 210.648C761.875 211.555 760.971 212.441 760.045 213.305C759.119 214.169 758.172 215.01 757.205 215.827C756.238 216.644 755.251 217.438 754.245 218.207C737.877 230.591 716.546 235.364 696.335 232.516C695.106 232.345 693.881 232.145 692.661 231.914C691.442 231.683 690.229 231.422 689.022 231.131C687.816 230.84 686.616 230.52 685.426 230.169C684.235 229.819 683.053 229.44 681.881 229.031C680.709 228.623 679.548 228.185 678.397 227.719C677.248 227.253 676.109 226.759 674.983 226.237C673.857 225.715 672.745 225.165 671.646 224.588C670.547 224.011 669.463 223.407 668.395 222.776C667.325 222.146 666.272 221.488 665.236 220.805C664.2 220.122 663.18 219.414 662.179 218.681C661.178 217.948 660.195 217.191 659.231 216.409C658.268 215.627 657.323 214.822 656.399 213.994C655.475 213.166 654.571 212.314 653.689 211.44C652.808 210.568 651.947 209.674 651.109 208.758C650.272 207.843 649.457 206.907 648.665 205.951C647.874 204.996 647.107 204.021 646.363 203.027C645.61 202.008 644.881 200.971 644.179 199.916C643.476 198.861 642.8 197.789 642.15 196.702C641.5 195.614 640.877 194.51 640.281 193.392C639.685 192.273 639.117 191.141 638.576 189.995C638.036 188.849 637.523 187.689 637.04 186.518C636.556 185.346 636.101 184.164 635.675 182.971C635.249 181.777 634.853 180.574 634.486 179.361C634.119 178.148 633.782 176.927 633.475 175.697C633.168 174.468 632.891 173.232 632.645 171.988C632.398 170.745 632.181 169.496 631.996 168.243C631.811 166.989 631.656 165.731 631.532 164.47C631.408 163.209 631.315 161.946 631.253 160.68C631.191 159.414 631.16 158.147 631.16 156.88C631.16 155.613 631.191 154.346 631.254 153.081C631.316 151.815 631.409 150.551 631.533 149.29C631.657 148.029 631.812 146.771 631.997 145.518C632.167 144.31 632.366 143.107 632.596 141.909C632.825 140.711 633.084 139.519 633.373 138.334C633.661 137.149 633.979 135.971 634.325 134.801C634.672 133.632 635.047 132.472 635.45 131.32C635.854 130.169 636.286 129.028 636.747 127.898C637.207 126.768 637.695 125.651 638.21 124.545C638.725 123.44 639.268 122.347 639.838 121.268C640.407 120.189 641.003 119.125 641.625 118.076C642.247 117.026 642.895 115.992 643.568 114.975C644.241 113.957 644.939 112.957 645.661 111.974C646.384 110.991 647.13 110.027 647.9 109.08C648.671 108.134 649.464 107.208 650.28 106.301C651.096 105.394 651.934 104.507 652.794 103.642C653.654 102.776 654.535 101.932 655.437 101.11C656.338 100.288 657.259 99.4886 658.2 98.712C659.142 97.9354 660.101 97.1824 661.079 96.4532ZM708.552 116.146C707.879 116.137 707.207 116.146 706.534 116.171C705.862 116.196 705.19 116.237 704.52 116.295C703.85 116.353 703.181 116.427 702.515 116.518C701.85 116.608 701.188 116.715 700.529 116.838C699.87 116.961 699.213 117.1 698.561 117.255C697.908 117.41 697.26 117.581 696.616 117.768C695.972 117.954 695.333 118.157 694.699 118.375C694.065 118.594 693.435 118.828 692.812 119.076C692.19 119.325 691.574 119.589 690.964 119.868C690.354 120.148 689.751 120.441 689.156 120.75C688.561 121.059 687.973 121.381 687.394 121.719C686.814 122.056 686.243 122.409 685.681 122.774C685.119 123.14 684.565 123.519 684.021 123.911C683.478 124.303 682.944 124.709 682.42 125.128C681.897 125.547 681.384 125.978 680.881 126.421C680.378 126.865 679.887 127.321 679.406 127.789C678.926 128.257 678.457 128.736 678 129.228C677.543 129.718 677.099 130.221 676.667 130.733C676.234 131.246 675.815 131.769 675.408 132.302C675.002 132.835 674.609 133.378 674.229 133.931C673.849 134.483 673.483 135.045 673.13 135.615C672.777 136.186 672.439 136.765 672.115 137.352C671.791 137.938 671.481 138.533 671.187 139.135C670.892 139.737 670.612 140.347 670.347 140.963C670.082 141.579 669.832 142.201 669.598 142.829C669.363 143.457 669.144 144.09 668.94 144.73C668.737 145.368 668.55 146.012 668.378 146.66C668.206 147.308 668.05 147.96 667.91 148.616C667.771 149.271 667.647 149.93 667.539 150.592C667.432 151.254 667.34 151.918 667.265 152.584C667.19 153.251 667.132 153.918 667.089 154.587C667.047 155.256 667.021 155.926 667.012 156.597C667.002 157.267 667.01 157.938 667.033 158.608C667.057 159.278 667.095 159.947 667.151 160.615C667.208 161.283 667.281 161.95 667.37 162.614C667.459 163.279 667.563 163.941 667.685 164.6C667.807 165.259 667.944 165.916 668.098 166.568C668.251 167.221 668.42 167.869 668.605 168.514C668.791 169.158 668.992 169.797 669.209 170.432C669.426 171.066 669.659 171.696 669.906 172.319C670.154 172.942 670.415 173.559 670.693 174.169C670.971 174.779 671.265 175.382 671.572 175.978C671.88 176.574 672.201 177.162 672.537 177.742C672.874 178.323 673.224 178.895 673.588 179.457C673.952 180.02 674.329 180.574 674.721 181.118C675.113 181.663 675.517 182.197 675.935 182.722C676.352 183.246 676.782 183.76 677.226 184.264C677.668 184.768 678.123 185.261 678.59 185.742C679.057 186.224 679.535 186.693 680.025 187.15C680.515 187.608 681.017 188.054 681.529 188.487C682.041 188.921 682.563 189.341 683.095 189.749C683.627 190.156 684.17 190.55 684.722 190.932C685.274 191.313 685.835 191.681 686.404 192.034C686.974 192.388 687.552 192.727 688.139 193.052C688.725 193.377 689.32 193.689 689.921 193.985C690.523 194.281 691.132 194.563 691.747 194.829C692.362 195.095 692.984 195.346 693.611 195.582C694.239 195.818 694.873 196.039 695.512 196.243C696.15 196.448 696.794 196.637 697.441 196.811C698.089 196.984 698.741 197.142 699.396 197.283C700.052 197.425 700.712 197.55 701.373 197.658C702.035 197.768 702.699 197.86 703.365 197.937C704.032 198.013 704.7 198.074 705.369 198.118C706.038 198.162 706.708 198.189 707.379 198.2C708.049 198.211 708.72 198.205 709.39 198.184C710.06 198.162 710.73 198.124 711.398 198.069C712.066 198.015 712.733 197.943 713.398 197.856C714.066 197.768 714.73 197.665 715.392 197.544C716.054 197.424 716.713 197.287 717.368 197.135C718.023 196.982 718.675 196.814 719.321 196.629C719.968 196.444 720.611 196.244 721.247 196.028C721.884 195.812 722.515 195.58 723.141 195.333C723.767 195.086 724.386 194.823 724.999 194.546C725.612 194.268 726.217 193.975 726.815 193.668C727.413 193.361 728.004 193.039 728.587 192.702C729.169 192.366 729.743 192.016 730.309 191.651C730.874 191.287 731.43 190.908 731.977 190.516C732.523 190.124 733.06 189.719 733.587 189.3C734.114 188.882 734.629 188.451 735.135 188.007C735.641 187.564 736.136 187.107 736.618 186.639C737.101 186.171 737.573 185.692 738.032 185.201C738.492 184.71 738.939 184.208 739.374 183.694C739.809 183.181 740.23 182.657 740.64 182.123C741.048 181.59 741.444 181.047 741.827 180.493C742.209 179.94 742.577 179.377 742.932 178.805C743.286 178.234 743.627 177.654 743.953 177.066C744.28 176.478 744.591 175.882 744.888 175.278C745.184 174.675 745.466 174.065 745.732 173.447C746 172.83 746.252 172.206 746.488 171.576C746.724 170.947 746.944 170.312 747.148 169.671C747.354 169.03 747.543 168.385 747.716 167.735C747.889 167.086 748.046 166.432 748.188 165.774C748.328 165.117 748.453 164.455 748.562 163.792C748.67 163.128 748.763 162.462 748.838 161.794C748.914 161.126 748.973 160.456 749.016 159.785C749.058 159.114 749.085 158.441 749.095 157.769C749.105 157.097 749.099 156.425 749.075 155.753C749.052 155.08 749.012 154.409 748.955 153.739C748.899 153.069 748.826 152.401 748.736 151.734C748.647 151.068 748.542 150.404 748.42 149.742C748.299 149.081 748.161 148.422 748.006 147.768C747.852 147.113 747.682 146.463 747.496 145.817C747.309 145.171 747.107 144.529 746.89 143.893C746.672 143.256 746.438 142.626 746.189 142.001C745.941 141.376 745.677 140.758 745.397 140.146C745.118 139.534 744.824 138.929 744.516 138.332C744.206 137.735 743.883 137.145 743.545 136.564C743.207 135.982 742.855 135.409 742.489 134.845C742.123 134.281 741.743 133.726 741.35 133.18C740.956 132.635 740.55 132.099 740.13 131.574C739.711 131.048 739.278 130.533 738.833 130.029C738.388 129.525 737.93 129.031 737.461 128.55C736.992 128.068 736.511 127.598 736.019 127.14C735.526 126.681 735.022 126.235 734.508 125.802C733.994 125.369 733.469 124.948 732.934 124.54C732.399 124.133 731.854 123.739 731.3 123.358C730.745 122.977 730.181 122.609 729.608 122.256C729.037 121.903 728.456 121.565 727.867 121.24C727.278 120.916 726.681 120.605 726.076 120.31C725.472 120.014 724.861 119.734 724.243 119.469C723.625 119.204 723 118.953 722.369 118.719C721.739 118.484 721.103 118.265 720.462 118.062C719.821 117.858 719.174 117.671 718.523 117.5C717.873 117.329 717.218 117.174 716.561 117.034C715.903 116.895 715.242 116.771 714.577 116.664C713.913 116.557 713.247 116.467 712.578 116.393C711.909 116.319 711.239 116.261 710.567 116.22C709.896 116.178 709.224 116.154 708.552 116.146Z" fill="white"/>
<path fill-rule="evenodd" clip-rule="evenodd" d="M437.97 81.9386C456.402 81.8149 473.872 88.0044 487.097 101.093C501.336 115.184 507.077 134.605 507.136 154.221C507.149 158.407 506.753 163.433 503.573 166.523C502.398 167.664 501.29 168.081 499.673 168.275C490.405 169.391 476.13 168.584 466.43 168.582L399.69 168.597C401.551 170.926 401.685 175.643 402.816 178.522C406.31 187.411 413.929 195.145 422.606 199.018C435.975 204.984 452.804 202.967 464.928 195.017C468.277 192.821 471.385 189.08 475.144 187.708C476.2 187.322 477.306 187.696 478.273 188.159C484.109 190.957 495.311 201.448 496.078 206.69C496.319 208.337 495.507 209.627 494.543 210.894C485.503 222.786 465.709 230.458 451.422 232.4C430.094 235.3 407.698 230.882 390.389 217.699C375.203 206.133 366.341 189.041 363.859 170.261C361.098 149.372 365.752 127.171 378.78 110.33C391.652 93.6918 409.739 84.7795 430.362 82.1886C432.896 82.0617 435.432 81.9781 437.97 81.9386ZM451.149 113.329C445.476 111.212 439.907 110.897 433.914 111.309C423.303 113.006 413.804 117.018 407.308 125.951C405.907 127.878 404.565 130.076 403.634 132.274C402.646 134.606 402.013 139.747 400.429 141.387L471.374 141.385C472.555 138.309 469.988 132.424 468.718 129.596C465.299 121.977 458.943 116.239 451.149 113.329Z" fill="white"/>
<path d="M541.751 53.8347C547.022 53.4603 567.81 52.9505 571.195 54.8313C572.945 55.8038 573.945 57.4535 574.451 59.3503C575.314 62.5883 575.633 82.889 574.371 85.1144L598.48 85.076C602.558 85.0664 606.878 84.7803 610.925 85.1997C612.529 85.366 614.913 85.7104 616.137 86.8052C617.522 88.0438 617.87 90.7987 617.961 92.5472C618.162 96.4499 618.633 112.115 616.591 114.112C615.336 115.339 613.054 115.761 611.386 115.971C607.109 116.508 602.405 116.118 598.088 116.099L574.401 116.088C577.012 120.162 572.787 174.77 576.101 186.804C578.918 197.028 590.846 198.674 599.801 197.945C603.731 197.624 611.228 194.96 614.755 197.072C618.645 199.402 618.457 216.956 616.823 221.638C615.9 224.286 614.078 225.955 611.612 227.194C599.645 233.205 576.492 232.287 564.029 228.011C535.297 218.154 536.493 192.641 536.489 167.391C536.488 155.388 536.326 143.359 536.466 131.359C536.502 128.302 537.354 118.784 536.033 116.292C535.998 116.226 535.958 116.163 535.92 116.099C532.715 116.165 519.995 117.188 517.687 115.353C516.524 113.572 516.101 111.619 515.952 109.515C515.671 105.535 515.139 89.1522 517.434 86.7344C519.42 84.6421 532.79 85.4401 535.993 85.4625C538.388 81.5623 534.564 63.826 537.647 57.4084C538.55 55.5283 539.814 54.522 541.751 53.8347Z" fill="white"/>
<path d="M345.895 82.9352C349.383 82.8567 356.389 82.059 358.91 84.7745C360.143 86.1028 359.883 91.1027 359.761 92.8645C359.476 96.9656 357.973 115.857 355.657 118.075C354.258 119.414 342.064 118.039 339.462 118.186C337.897 118.28 336.344 118.476 334.804 118.774C333.265 119.073 331.752 119.471 330.264 119.968C326.509 121.258 322.752 123.752 319.776 126.354C313.654 131.708 309.484 138.995 307.5 146.85C305.414 155.107 305.998 164.273 306.003 172.739L306.045 203.819C306.059 210.317 306.289 216.889 305.852 223.374C305.192 224.343 304.475 225.22 303.597 226.003C300.177 229.052 282.355 228.303 277.426 228.052C274.072 227.881 271.679 227.442 269.352 224.86C268.323 222.969 268.125 220.906 268.036 218.792C267.679 210.314 267.949 201.724 267.948 193.233V145.858L267.96 111.166C267.963 104.961 267.634 98.5616 268.131 92.3866C268.264 90.7421 268.7 88.7395 269.893 87.5142C271.542 85.82 274.621 85.4604 276.872 85.3837C281.467 85.227 295.826 84.9228 299.558 85.6002C300.999 85.8618 302.392 86.385 303.46 87.4175C306.691 90.5403 305.558 99.5195 305.563 103.795C306.972 102.166 308.338 100.488 309.805 98.9129C319.569 88.4303 331.744 83.4077 345.895 82.9352Z" fill="white"/>
</svg>
